<svg width="60" height="193" viewbox="0 0 120 193" fill="none" xmlns="http://www.w3.org/2000/svg">
  <path d="M140.412 94.5898C150.901 118.241 186.491 150.122 124.464 163.968C62.4364 177.814 9.08864 96.0563 18.5 62C26.3045 33.7582 50.5 10.2621 95 21.4998C124.464 28.9403 126.096 62.3108 140.412 94.5898Z" fill="#FFF383"></path>
  <path d="M112.5 33.5C92.9939 24.0002 69.5 22.0003 54.5 28.5C39.5 34.9997 27 50 23.5 64C20 78 20.0001 96.5 27 112.5C34 128.5 43.5001 139.5 59.5001 153.5C75.5001 167.5 93.5 173.5 109.506 183" stroke="black" stroke-width="3" stroke-linecap="round"></path>
  <circle cx="46.707" cy="82.3651" r="2.97356" transform="rotate(-18.7605 46.707 82.3651)" fill="black"></circle>
  <circle cx="79.4842" cy="58.6705" r="2.97356" transform="rotate(-18.7605 79.4842 58.6705)" fill="black"></circle>
  <path d="M69.2866 81.0312C70.3964 79.4411 74.3298 75.1153 75.6923 79.1267C76.2352 80.7253 74.5334 82.5041 73.1962 82.9583" stroke="black" stroke-width="3" stroke-linecap="round"></path>
</svg>