<svg width="60" height="60" viewbox="0 0 116 80" fill="none" xmlns="http://www.w3.org/2000/svg">
  <path d="M20.3162 60.1026C25.8163 37.1026 33.3163 -3.41766 73.8163 2.60269C114.316 8.62303 116.816 59.1028 114.816 98.6028C113.722 120.224 31.8161 119.103 14.3162 108.103C-2.53042 97.5132 14.1529 85.8759 20.3162 60.1026Z" fill="#FFF383"></path>
  <path d="M2 89C7.90722 75.5 14.5313 46 20 33.5C25.4687 21 34.5 4.23985 56 2.00006C77.5 -0.239721 95.2038 14.7842 101.5 30C107.796 45.2158 107.195 83.5054 107.5 89" stroke="black" stroke-width="3" stroke-linecap="round"></path>
  <circle cx="48.1358" cy="34.3523" r="2" transform="rotate(20.374 48.1358 34.3523)" fill="black"></circle>
  <circle cx="75.2944" cy="35.9047" r="2" transform="rotate(20.374 75.2944 35.9047)" fill="black"></circle>
  <path d="M60.482 43.2417C61.736 42.8832 65.6243 42.2961 64.6323 44.9673C64.237 46.0318 62.594 46.2373 61.7036 45.9067" stroke="black" stroke-width="3" stroke-linecap="round"></path>
</svg>