<svg width="45" height="120" viewbox="0 0 77 130" fill="none" xmlns="http://www.w3.org/2000/svg">
  <path d="M7.24376 47.5996C7.24374 26.8855 -5.50006 -8.00009 35 1.99994C75.5 12 84.4368 86.0052 69.8715 107.875C57.7931 126.011 35.1784 132.946 19.4089 121.211C4.22811 109.914 7.2438 75.8706 7.24376 47.5996Z" fill="#FFF383"></path>
  <path d="M2.19775 7.00005C18.5 -1.49997 40 7.00005 53 23.4999C65.9999 39.9997 70.5 59.2298 70.5 78.5C70.5 94.6821 67.8708 105.888 53 116C38.8785 125.603 12.642 125.526 2.19775 119" stroke="black" stroke-width="3" stroke-linecap="round"></path>
  <path d="M15 43C15 44.1046 14.1046 45 13 45C11.8954 45 11 44.1046 11 43C11 41.8954 11.8954 41 13 41C14.1046 41 15 41.8954 15 43Z" fill="black"></path>
  <path d="M41 35C41 36.1046 40.1046 37 39 37C37.8954 37 37 36.1046 37 35C37 33.8954 37.8954 33 39 33C40.1046 33 41 33.8954 41 35Z" fill="black"></path>
  <path fill-rule="evenodd" clip-rule="evenodd" d="M28.4795 48.2969C28.329 48.5307 28.2416 48.8091 28.2416 49.1079C28.2416 49.9363 28.9132 50.6079 29.7416 50.6079C30.5559 50.6079 31.4516 50.3032 32.1552 49.8208C32.8498 49.3446 33.6601 48.4705 33.6601 47.2077C33.6601 46.2105 33.3446 45.1828 32.3963 44.595C31.5567 44.0746 30.6113 44.1616 29.9885 44.2975C28.7006 44.5786 27.3792 45.3859 26.78 45.8265C26.1126 46.3172 25.9694 47.2561 26.4601 47.9235C26.9321 48.5654 27.8187 48.7224 28.4795 48.2969ZM30.5985 47.2352C30.2912 47.3063 29.9418 47.4487 29.6094 47.6137C29.653 47.6099 29.6971 47.6079 29.7416 47.6079C29.7897 47.6079 29.8997 47.5958 30.0505 47.5461C30.1969 47.4978 30.3406 47.4275 30.4588 47.3464C30.5221 47.3031 30.567 47.2656 30.5985 47.2352ZM30.636 46.9504C30.6362 46.9501 30.6376 46.9536 30.6398 46.9617C30.6368 46.9547 30.6358 46.9506 30.636 46.9504Z" fill="black"></path>
</svg>