<svg width="1287" height="157" viewbox="0 0 1287 157" fill="none" xmlns="http://www.w3.org/2000/svg">
  <path d="M1168 67C1177.2 31.4 1202 14 1218.5 7.49999C1235 0.999998 1258 5 1272 22.5C1286 40 1288.5 88 1286 112C1283.5 136 1252 147.5 1241.5 147.5C1231 147.5 1186.5 151.5 1172 130C1161.21 114 1160.25 97 1168 67Z" fill="#FFF383"></path>
  <path d="M2 138.867C5.5 147.742 19.5 132.5 32 138.867C44.5 145.235 52.6075 147.742 59.5 147.742C89.3204 147.742 105 142 139.066 147.841C160.921 148.465 182.148 153.198 203.851 154.645C219.494 155.688 234.88 153.924 250.394 152.278C280.299 149.107 310.983 151.828 341.016 151.292C362.251 150.913 383.169 147.742 404.519 147.742C424.994 147.742 444.88 145.843 465.262 144.587C512.085 141.7 559.756 144.192 606.667 144.192C661.858 144.192 717.137 145.061 772.329 144.192C785.518 143.985 798.167 140.642 811.378 140.642C825.077 140.642 837.953 138.317 851.314 135.219C864.433 132.177 877.677 125.889 891.152 124.766C902.728 123.802 915.963 126.067 927.44 127.429C950.312 130.143 972.965 129.993 995.972 129.993C1029.69 129.993 1062.43 133.543 1096.16 133.543C1113.61 133.543 1126.61 130.508 1138.86 118.258C1150.85 106.259 1153.17 85.8821 1158.38 70.236C1165.24 49.6619 1177.02 29.5 1190 18C1202.98 6.49996 1213.83 2.49996 1225.83 2.49996C1231.71 2.49996 1240.86 1.60461 1250.68 6.83085C1260.5 12.0571 1265.44 19.9153 1270 26C1274.62 32.1654 1277.5 48.5 1277.5 48.5C1277.5 48.5 1279.98 57.736 1281.74 70.236C1283.5 82.736 1282.13 92.9328 1281.74 102.974C1280.57 133.433 1251.29 144.192 1225.83 144.192C1211.43 144.192 1194.99 141.653 1182 135.5C1170.95 130.265 1156.66 127 1144.5 127" stroke="black" stroke-width="4" stroke-linecap="round"></path>
  <path d="M1228.01 63.9771C1230.76 63.4391 1236.77 61.6052 1238.96 64.417C1241.08 67.1448 1237.86 67.8065 1236.61 69.0608C1231.96 73.7121 1229.58 66.0842 1227.13 64.857" stroke="black" stroke-width="3" stroke-linecap="round"></path>
  <circle cx="1210.23" cy="50.9292" r="3.5" fill="black"></circle>
  <circle cx="1249.23" cy="50.9292" r="3.5" fill="black"></circle>
  <path d="M158 113C158 129.569 149.5 143 133.5 143C117.5 143 109 129.569 109 113C109 96.4315 119.969 78 133.5 78C147.031 78 158 96.4315 158 113Z" stroke="black" stroke-width="2"></path>
  <path d="M263.625 110.915C270.794 124.603 269.584 139.377 256.366 146.3C243.147 153.224 230.313 145.805 223.144 132.117C215.975 118.429 217.062 98.4556 228.241 92.6009C239.419 86.7462 256.456 97.2271 263.625 110.915Z" stroke="black" stroke-width="2"></path>
  <path d="M205.603 135.615C196.256 147.249 182.71 151.885 171.475 142.859C160.24 133.832 161.849 119.605 171.196 107.971C180.544 96.3375 198.644 89.5837 208.145 97.2174C217.647 104.851 214.95 123.981 205.603 135.615Z" stroke="black" stroke-width="2"></path>
</svg>