<svg width="80" height="168" viewbox="0 0 127 168" fill="none" xmlns="http://www.w3.org/2000/svg">
  <path d="M29.3086 61.3253C34.8087 38.3253 42.3087 -2.19501 82.8087 3.82534C123.309 9.84569 125.809 60.3254 123.809 99.8254C122.714 121.446 40.8085 120.325 23.3086 109.325C6.46202 98.7359 23.1453 87.0986 29.3086 61.3253Z" fill="#FFF383"></path>
  <path d="M10.9924 90.2228C16.8996 76.7228 23.5237 47.2227 28.9924 34.7228C34.4612 22.2228 43.4924 5.46263 64.9924 3.22284C86.4924 0.983057 104.196 16.007 110.492 31.2228C116.789 46.4386 116.187 84.7282 116.492 90.2228" stroke="black" stroke-width="5" stroke-linecap="round"></path>
  <circle cx="57.1282" cy="35.5751" r="2" transform="rotate(20.374 57.1282 35.5751)" fill="black"></circle>
  <circle cx="84.2868" cy="37.1273" r="2" transform="rotate(20.374 84.2868 37.1273)" fill="black"></circle>
  <path d="M69.4744 44.4647C70.7284 44.1062 74.6168 43.5191 73.6247 46.1903C73.2294 47.2548 71.5864 47.4604 70.696 47.1297" stroke="black" stroke-width="3" stroke-linecap="round"></path>
  <path d="M24.5119 89.4322L9.9924 77C2.99244 89.4322 -0.461651 115.911 3.99242 131.5C9.9924 152.5 25.9924 164 58.9924 165.5C91.9924 167 111.025 154 119.492 136.5C127.96 119 125.992 98.5 122.492 80.5L105.306 89.4322L94.4924 77L80.6502 89.4322L63.9924 77L51.4431 89.4322L38.1672 77L24.5119 89.4322Z" fill="white" stroke="black" stroke-width="3"></path>
</svg>