<svg width="90" height="84" viewbox="0 0 171 84" fill="none" xmlns="http://www.w3.org/2000/svg">
  <path d="M50.9438 38.2479C51.3994 54.8102 43.2719 68.4703 27.2779 68.9102C11.284 69.3501 2.4179 56.1574 1.96234 39.5952C1.50678 23.0329 11.9649 4.3068 25.4907 3.93476C39.0166 3.56272 50.4883 21.6856 50.9438 38.2479Z" fill="white" stroke="black" stroke-width="2"></path>
  <path d="M156.472 33.2596C164.015 46.7454 163.211 61.5473 150.188 68.8312C137.165 76.1151 124.132 69.0523 116.589 55.5665C109.046 42.0807 109.584 22.0851 120.597 15.9252C131.61 9.76535 148.929 19.7738 156.472 33.2596Z" fill="white" stroke="black" stroke-width="2"></path>
  <path d="M99.1507 59.546C90.1268 71.4326 76.7133 76.4391 65.2346 67.7248C53.7559 59.0105 54.9731 44.7451 63.9971 32.8585C73.021 20.9718 90.929 13.7229 100.636 21.0925C110.344 28.462 108.175 47.6593 99.1507 59.546Z" fill="white" stroke="black" stroke-width="2"></path>
</svg>