<svg width="18" height="50" viewbox="0 0 36 100" fill="none" xmlns="http://www.w3.org/2000/svg">
  <path d="M19.5 3C19.5 2.17157 18.8284 1.5 18 1.5C17.1716 1.5 16.5 2.17157 16.5 3H19.5ZM18 90.6603L26.6603 82L18 73.3397L9.33975 82L18 90.6603ZM16.5 3.9875C16.5 4.81593 17.1716 5.4875 18 5.4875C18.8284 5.4875 19.5 4.81593 19.5 3.9875H16.5ZM19.5 11.8875C19.5 11.0591 18.8284 10.3875 18 10.3875C17.1716 10.3875 16.5 11.0591 16.5 11.8875H19.5ZM16.5 13.8625C16.5 14.6909 17.1716 15.3625 18 15.3625C18.8284 15.3625 19.5 14.6909 19.5 13.8625H16.5ZM19.5 21.7625C19.5 20.9341 18.8284 20.2625 18 20.2625C17.1716 20.2625 16.5 20.9341 16.5 21.7625H19.5ZM16.5 23.7375C16.5 24.5659 17.1716 25.2375 18 25.2375C18.8284 25.2375 19.5 24.5659 19.5 23.7375H16.5ZM19.5 31.6375C19.5 30.8091 18.8284 30.1375 18 30.1375C17.1716 30.1375 16.5 30.8091 16.5 31.6375H19.5ZM16.5 33.6125C16.5 34.4409 17.1716 35.1125 18 35.1125C18.8284 35.1125 19.5 34.4409 19.5 33.6125H16.5ZM19.5 41.5125C19.5 40.6841 18.8284 40.0125 18 40.0125C17.1716 40.0125 16.5 40.6841 16.5 41.5125H19.5ZM16.5 43.4875C16.5 44.3159 17.1716 44.9875 18 44.9875C18.8284 44.9875 19.5 44.3159 19.5 43.4875H16.5ZM19.5 51.3875C19.5 50.5591 18.8284 49.8875 18 49.8875C17.1716 49.8875 16.5 50.5591 16.5 51.3875H19.5ZM16.5 53.3625C16.5 54.1909 17.1716 54.8625 18 54.8625C18.8284 54.8625 19.5 54.1909 19.5 53.3625H16.5ZM19.5 61.2625C19.5 60.4341 18.8284 59.7625 18 59.7625C17.1716 59.7625 16.5 60.4341 16.5 61.2625H19.5ZM16.5 63.2375C16.5 64.0659 17.1716 64.7375 18 64.7375C18.8284 64.7375 19.5 64.0659 19.5 63.2375H16.5ZM19.5 71.1375C19.5 70.3091 18.8284 69.6375 18 69.6375C17.1716 69.6375 16.5 70.3091 16.5 71.1375H19.5ZM16.5 73.1125C16.5 73.9409 17.1716 74.6125 18 74.6125C18.8284 74.6125 19.5 73.9409 19.5 73.1125H16.5ZM19.5 81.0125C19.5 80.1841 18.8284 79.5125 18 79.5125C17.1716 79.5125 16.5 80.1841 16.5 81.0125H19.5ZM16.5 3V3.9875H19.5V3H16.5ZM16.5 11.8875V13.8625H19.5V11.8875H16.5ZM16.5 21.7625V23.7375H19.5V21.7625H16.5ZM16.5 31.6375V33.6125H19.5V31.6375H16.5ZM16.5 41.5125V43.4875H19.5V41.5125H16.5ZM16.5 51.3875V53.3625H19.5V51.3875H16.5ZM16.5 61.2625V63.2375H19.5V61.2625H16.5ZM16.5 71.1375V73.1125H19.5V71.1375H16.5ZM16.5 81.0125V82H19.5V81.0125H16.5ZM21 3C21 1.34315 19.6569 0 18 0C16.3431 0 15 1.34315 15 3H21ZM18 99.3205L35.3205 82L18 64.6795L0.679491 82L18 99.3205ZM15 3.9875C15 5.64435 16.3431 6.9875 18 6.9875C19.6569 6.9875 21 5.64435 21 3.9875H15ZM21 11.8875C21 10.2306 19.6569 8.8875 18 8.8875C16.3431 8.8875 15 10.2306 15 11.8875H21ZM15 13.8625C15 15.5194 16.3431 16.8625 18 16.8625C19.6569 16.8625 21 15.5194 21 13.8625H15ZM21 21.7625C21 20.1056 19.6569 18.7625 18 18.7625C16.3431 18.7625 15 20.1056 15 21.7625H21ZM15 23.7375C15 25.3944 16.3431 26.7375 18 26.7375C19.6569 26.7375 21 25.3944 21 23.7375H15ZM21 31.6375C21 29.9806 19.6569 28.6375 18 28.6375C16.3431 28.6375 15 29.9806 15 31.6375H21ZM15 33.6125C15 35.2694 16.3431 36.6125 18 36.6125C19.6569 36.6125 21 35.2694 21 33.6125H15ZM21 41.5125C21 39.8556 19.6569 38.5125 18 38.5125C16.3431 38.5125 15 39.8556 15 41.5125H21ZM15 43.4875C15 45.1444 16.3431 46.4875 18 46.4875C19.6569 46.4875 21 45.1444 21 43.4875H15ZM21 51.3875C21 49.7306 19.6569 48.3875 18 48.3875C16.3431 48.3875 15 49.7306 15 51.3875H21ZM15 53.3625C15 55.0194 16.3431 56.3625 18 56.3625C19.6569 56.3625 21 55.0194 21 53.3625H15ZM21 61.2625C21 59.6056 19.6569 58.2625 18 58.2625C16.3431 58.2625 15 59.6056 15 61.2625H21ZM15 63.2375C15 64.8944 16.3431 66.2375 18 66.2375C19.6569 66.2375 21 64.8944 21 63.2375H15ZM21 71.1375C21 69.4806 19.6569 68.1375 18 68.1375C16.3431 68.1375 15 69.4806 15 71.1375H21ZM15 73.1125C15 74.7693 16.3431 76.1125 18 76.1125C19.6569 76.1125 21 74.7693 21 73.1125H15ZM21 81.0125C21 79.3556 19.6569 78.0125 18 78.0125C16.3431 78.0125 15 79.3556 15 81.0125H21ZM15 3V3.9875H21V3H15ZM15 11.8875V13.8625H21V11.8875H15ZM15 21.7625V23.7375H21V21.7625H15ZM15 31.6375V33.6125H21V31.6375H15ZM15 41.5125L15 43.4875H21V41.5125H15ZM15 51.3875V53.3625H21V51.3875H15ZM15 61.2625V63.2375H21V61.2625H15ZM15 71.1375V73.1125H21V71.1375H15ZM15 81.0125V82H21V81.0125H15Z" fill="#FFF383"></path>
</svg>