<svg width="183" height="200" viewBox="0 0 183 200" fill="none" xmlns="http://www.w3.org/2000/svg">
  <g clip-path="url(#clip0_122_15)">
  <path d="M157.658 67.4934C151.657 50.5224 141.7 31.6166 123.336 27.4634C118.229 21.999 115.782 19.4984 108.898 19.084C107.336 17.7087 98.8399 16.1368 96.1903 16.6658C88.9922 18.3825 82.2654 16.9025 74.97 18.6423C67.8691 20.3358 61.5928 22.0381 56.9672 28.0759C56.7218 28.34 56.5736 28.5809 56.3514 28.9423C51.5484 31.2186 51.113 31.1168 46.9587 33.958C46.2501 34.4354 42.1805 40.649 41.7129 41.2745C35.7621 46.4974 35.1426 49.9349 33.3851 57.6531C30.536 69.8467 28.4471 83.5038 30.74 95.7047C33.3531 109.68 36.0403 123.534 38.6535 137.509C39.8463 143.804 41.0623 150.197 42.2551 156.492C43.448 162.787 44.1455 170.022 48.7241 174.996C56.417 183.544 71.593 184.243 82.2107 184.795C94.4776 185.365 107.105 183.998 118.745 179.783C139.662 172.225 157.616 156.121 164.038 134.337C170.561 112.117 165.142 88.5311 157.658 67.4934ZM139.801 148.238C144.329 140.065 148.277 131.619 151.526 122.825C149.917 132.461 145.918 141.125 139.801 148.238Z" fill="#FFF383"/>
  <path d="M28.6682 143.489C37.7466 140.604 35.6386 127.023 35.0615 119.861C33.6246 104.783 30.8304 89.6177 32.4508 74.4274C34.0758 58.8249 40.5419 44.1239 52.0588 33.3586C63.3811 22.6397 80.6492 18.316 95.9921 19.2832C111.358 20.3477 126.57 28.9538 136.288 40.8231C146.173 52.9611 149.686 68.9833 152.36 84.0747C155.4 101.135 157.783 118.455 151.271 135.12C148.129 143.065 142.665 150.331 136.464 156.23C130.287 162.227 122.469 165.222 114.766 168.704C99.653 175.598 82.4298 175.799 66.6409 171.237C51.7461 166.976 36.1038 157.856 30.984 142.422C29.9498 139.379 25.0862 140.539 26.1204 143.582C35.6783 172.453 73.8393 182.885 101.03 178.354C107.955 177.216 113.999 174.541 120.335 171.796C128.719 168.152 136.453 163.943 142.737 157.099C155.184 143.336 161.33 126.861 160.489 108.248C159.751 91.3588 156.65 73.1824 150.831 57.4019C145.178 41.89 135.381 30.5534 121.161 22.2249C106.941 13.8964 90.7317 12.3134 74.8996 16.1918C59.9429 19.8615 47.9665 28.2691 39.1232 40.7613C27.8398 56.8167 25.9478 76.9035 27.4881 95.8634C28.214 104.943 29.6441 113.957 30.296 123.157C30.5011 126.603 32.1078 137.22 27.5083 138.625C24.442 139.562 25.6018 144.426 28.6682 143.489Z" fill="black"/>
  <path d="M97.6237 85.6141C98.4759 85.3081 105.928 82.5028 106.285 83.1373C106.666 83.8691 103.164 84.7042 102.872 84.7737C101.607 85.0753 100.296 85.1823 99.1149 84.5389C96.2932 83.0529 93.6034 87.2925 96.5223 88.7553C101.031 91.2783 110.48 89.95 111.034 83.6497C111.283 80.8146 109.295 78.513 106.46 78.2639C103.212 78.0103 99.4328 79.8369 96.3897 80.871C93.4207 81.7847 94.5806 86.6483 97.6237 85.6141Z" fill="black"/>
  <path d="M79.5899 73.3633C82.7026 72.6209 81.5427 67.7573 78.43 68.4997C75.3173 69.242 76.4772 74.1056 79.5899 73.3633Z" fill="black"/>
  <path d="M118.661 64.7652C121.774 64.0229 120.614 59.1593 117.501 59.9016C114.389 60.644 115.548 65.5076 118.661 64.7652Z" fill="black"/>
  </g>
  <defs>
  <clipPath id="clip0_122_15">
  <rect width="146.8" height="169.7" fill="white" transform="translate(0 34.0539) rotate(-13.4134)"/>
  </clipPath>
  </defs>
</svg>
